<svg xmlns="http://www.w3.org/2000/svg" width="12.214" height="9.161" viewBox="0 0 12.214 9.161"><defs><style>.a{fill:#e36da6;}</style></defs><path class="a" d="M11.069,59.882H1.145A1.146,1.146,0,0,0,0,61.027V67.9a1.146,1.146,0,0,0,1.145,1.145h9.924A1.146,1.146,0,0,0,12.214,67.9V61.027A1.146,1.146,0,0,0,11.069,59.882Zm0,.763a.38.38,0,0,1,.146.03L6.107,65.1,1,60.675a.38.38,0,0,1,.146-.03Zm0,7.634H1.145A.382.382,0,0,1,.763,67.9V61.481L5.857,65.9a.382.382,0,0,0,.5,0l5.094-4.414V67.9A.382.382,0,0,1,11.069,68.279Z" transform="translate(0 -59.882)"/></svg>