<svg xmlns="http://www.w3.org/2000/svg" width="21.11" height="22" viewBox="0 0 21.11 22"><defs><style>.a{fill:#5c5c5c;}</style></defs><g transform="translate(-10.359 0.002)"><g transform="translate(10.359 -0.002)"><g transform="translate(0 0)"><path class="a" d="M30.451,11.283a.645.645,0,0,1,0-.57l.821-1.679A1.91,1.91,0,0,0,30.447,6.5L28.8,5.623a.645.645,0,0,1-.335-.461l-.323-1.84a1.91,1.91,0,0,0-2.157-1.567l-1.85.262a.645.645,0,0,1-.542-.176L22.247.541a1.91,1.91,0,0,0-2.667,0l-1.343,1.3a.645.645,0,0,1-.542.176l-1.85-.262a1.91,1.91,0,0,0-2.157,1.567l-.323,1.84a.645.645,0,0,1-.335.461L11.38,6.5a1.91,1.91,0,0,0-.824,2.536l.82,1.679a.645.645,0,0,1,0,.57l-.821,1.679A1.91,1.91,0,0,0,11.38,15.5l1.65.876a.645.645,0,0,1,.335.461l.323,1.84a1.909,1.909,0,0,0,1.883,1.587,1.962,1.962,0,0,0,.275-.019l1.85-.262a.645.645,0,0,1,.542.176l1.343,1.3a1.91,1.91,0,0,0,2.667,0l1.343-1.3a.645.645,0,0,1,.542-.176l1.85.262a1.91,1.91,0,0,0,2.157-1.567l.323-1.84a.645.645,0,0,1,.335-.461l1.65-.876a1.91,1.91,0,0,0,.824-2.536Zm-.6,3.094-1.65.876a1.906,1.906,0,0,0-.99,1.363l-.323,1.84a.646.646,0,0,1-.73.53l-1.85-.262a1.9,1.9,0,0,0-1.6.52l-1.343,1.3a.646.646,0,0,1-.9,0l-1.343-1.3a1.9,1.9,0,0,0-1.329-.54,1.948,1.948,0,0,0-.273.019l-1.85.262a.646.646,0,0,1-.73-.53l-.323-1.84a1.905,1.905,0,0,0-.99-1.363l-1.65-.876a.646.646,0,0,1-.279-.858l.821-1.679a1.905,1.905,0,0,0,0-1.684L11.7,8.477a.646.646,0,0,1,.279-.858l1.65-.876a1.906,1.906,0,0,0,.99-1.363l.323-1.84a.646.646,0,0,1,.73-.53l1.85.262a1.905,1.905,0,0,0,1.6-.52l1.343-1.3a.646.646,0,0,1,.9,0l1.343,1.3a1.905,1.905,0,0,0,1.6.52l1.85-.262a.646.646,0,0,1,.73.53l.323,1.84a1.905,1.905,0,0,0,.99,1.363l1.65.876a.646.646,0,0,1,.279.858l-.821,1.679a1.906,1.906,0,0,0,0,1.684l.821,1.679A.646.646,0,0,1,29.853,14.377Z" transform="translate(-10.359 0.002)"/></g></g><g transform="translate(16.092 6.177)"><g transform="translate(0)"><path class="a" d="M153.249,143.977a.634.634,0,0,0-.9,0l-8.374,8.374a.634.634,0,1,0,.9.9l8.374-8.374A.634.634,0,0,0,153.249,143.977Z" transform="translate(-143.791 -143.791)"/></g></g><g transform="translate(16.05 5.288)"><g transform="translate(0)"><path class="a" d="M145.128,123.116a2.326,2.326,0,1,0,2.326,2.326A2.329,2.329,0,0,0,145.128,123.116Zm0,3.384a1.057,1.057,0,1,1,1.057-1.057A1.059,1.059,0,0,1,145.128,126.5Z" transform="translate(-142.802 -123.116)"/></g></g><g transform="translate(21.125 12.056)"><g transform="translate(0)"><path class="a" d="M263.248,280.61a2.326,2.326,0,1,0,2.326,2.326A2.329,2.329,0,0,0,263.248,280.61Zm0,3.384a1.057,1.057,0,1,1,1.057-1.057A1.059,1.059,0,0,1,263.248,283.994Z" transform="translate(-260.922 -280.61)"/></g></g></g></svg>