<svg xmlns="http://www.w3.org/2000/svg"
    xmlns:xlink="http://www.w3.org/1999/xlink"
    width="375" height="812" viewBox="0 0 375 812">
    <defs><style>
        .a{fill:#fff;}.b{clip-path:url(#a);}.c{opacity:0.4;}.d{opacity:0.31;}.e{fill:#fd76ad;}.f,.j,.k{fill:#ffdcea;}.f,.j{opacity:0.56;}.f{mix-blend-mode:multiply;isolation:isolate;}.g{opacity:0.8;}.h{fill:#ff8cbb;}.i{fill:#e36da6;opacity:0.16;}</style><clipPath id="a"><rect class="a" width="375" height="812"/></clipPath>
    </defs>
    <g class="b">
        <g class="c" transform="translate(-58 -46)">
            <g class="d" transform="translate(-576 510)">
                <path class="e" d="M599.061,218.949l-5.86-.99,10.037,31.128,24.919-25.217-6.224-1.052-16.306,16.5Z"/><path class="f" d="M605.627,239.318l16.306-16.5,8.614-8.717-34.955-5.912,3.469,10.761Z"/></g><g class="g" transform="translate(-148 -78)"><path class="h" d="M539.058,157.9a1.434,1.434,0,0,1-1.014-2.448c2.161-2.16,4.618-1.9,6.6-1.685s3.129.274,4.266-.861,1.073-2.3.863-4.267-.475-4.439,1.687-6.6,4.619-1.9,6.6-1.686c1.962.209,3.13.273,4.267-.862s1.074-2.3.862-4.268-.474-4.438,1.687-6.6,4.623-1.9,6.6-1.686,3.128.274,4.266-.862,1.072-2.3.862-4.266-.476-4.439,1.686-6.6,4.624-1.9,6.6-1.689,3.132.274,4.27-.865,1.077-2.307.867-4.273-.472-4.441,1.693-6.605,4.619-1.9,6.6-1.691c1.966.21,3.135.272,4.274-.867a1.433,1.433,0,0,1,2.027,2.027c-2.165,2.165-4.628,1.9-6.605,1.691s-3.132-.271-4.272.868-1.078,2.307-.868,4.274.472,4.439-1.691,6.6-4.625,1.9-6.6,1.689-3.132-.273-4.27.866-1.073,2.3-.863,4.266.476,4.439-1.686,6.6-4.622,1.9-6.6,1.686-3.129-.275-4.266.861-1.074,2.3-.863,4.267.475,4.439-1.687,6.6-4.62,1.9-6.6,1.686c-1.962-.212-3.13-.275-4.267.863s-1.074,2.3-.863,4.268.476,4.437-1.686,6.6-4.622,1.9-6.6,1.685-3.13-.275-4.265.862A1.43,1.43,0,0,1,539.058,157.9Z"/><path class="h" d="M548.97,167.815a1.435,1.435,0,0,1-1.014-2.448c2.161-2.16,4.621-1.9,6.6-1.685s3.129.274,4.266-.861,1.074-2.3.863-4.267-.475-4.439,1.687-6.6,4.619-1.9,6.6-1.686c1.96.21,3.128.274,4.267-.863s1.074-2.3.862-4.267-.475-4.438,1.687-6.6,4.624-1.9,6.6-1.686,3.128.275,4.267-.862,1.072-2.3.862-4.266-.476-4.439,1.686-6.6,4.625-1.9,6.6-1.689,3.132.274,4.27-.866,1.077-2.307.868-4.273-.471-4.44,1.692-6.6,4.626-1.9,6.6-1.691,3.134.271,4.274-.868a1.434,1.434,0,0,1,2.027,2.028c-2.166,2.163-4.625,1.9-6.6,1.691-1.961-.209-3.133-.272-4.272.867s-1.076,2.307-.868,4.273.472,4.44-1.691,6.6-4.624,1.9-6.6,1.689-3.134-.274-4.271.865-1.072,2.3-.862,4.267.476,4.438-1.686,6.6-4.623,1.9-6.6,1.685-3.128-.275-4.266.862-1.074,2.3-.863,4.267c.212,1.978.475,4.439-1.687,6.6s-4.619,1.9-6.6,1.686c-1.962-.211-3.129-.276-4.266.863s-1.074,2.3-.862,4.267.474,4.438-1.688,6.6-4.62,1.9-6.6,1.685c-1.963-.211-3.129-.276-4.264.861A1.431,1.431,0,0,1,548.97,167.815Z"/><path class="h" d="M558.882,177.726a1.433,1.433,0,0,1-1.014-2.447c2.16-2.161,4.619-1.9,6.6-1.685s3.129.274,4.266-.861,1.074-2.3.862-4.267-.474-4.439,1.688-6.6,4.619-1.9,6.6-1.686c1.96.208,3.128.275,4.266-.863s1.074-2.3.863-4.267-.475-4.438,1.687-6.6,4.622-1.9,6.6-1.686,3.128.275,4.266-.862,1.073-2.3.863-4.266-.476-4.439,1.686-6.6,4.623-1.9,6.6-1.689,3.132.273,4.27-.866,1.077-2.307.868-4.272-.472-4.44,1.692-6.6,4.624-1.9,6.6-1.692,3.135.273,4.273-.867a1.434,1.434,0,0,1,2.028,2.027c-2.162,2.165-4.624,1.9-6.6,1.692s-3.132-.272-4.272.867-1.077,2.308-.868,4.273.472,4.44-1.691,6.6-4.625,1.9-6.6,1.689-3.134-.273-4.271.865-1.072,2.3-.862,4.267.476,4.438-1.686,6.6-4.622,1.9-6.6,1.685-3.128-.274-4.266.862-1.074,2.3-.863,4.267.475,4.439-1.687,6.6-4.621,1.9-6.6,1.687c-1.963-.211-3.129-.275-4.266.863s-1.074,2.3-.862,4.267.474,4.438-1.688,6.6-4.622,1.9-6.6,1.685-3.129-.275-4.265.861A1.429,1.429,0,0,1,558.882,177.726Z"/></g><g transform="translate(4 8)"><path class="i" d="M423.434,283.2a28.537,28.537,0,1,1,28.537-28.537A28.571,28.571,0,0,1,423.434,283.2Zm0-51.661a23.124,23.124,0,1,0,23.123,23.124A23.149,23.149,0,0,0,423.434,231.54Z" transform="translate(-366 -176)"/><path class="j" d="M425.293,211.377l-11.024,38.136-31.5-32.546Zm-12.351,32.8,8.531-29.515-32.912,4.326Z" transform="translate(-366 -176)"/></g><g transform="translate(-533 177)"><path class="k" d="M532.034,282.388l-11.384-.58.254-4.993,7.153.364,1.986-9.067,9.267.473,1.989-9.066,9.276.466,1.538-7L557,254.054l-2.446,11.138-9.275-.466-1.989,9.07-9.266-.473Z"/>
        </g>
        </g>
    </g>
</svg>