<svg xmlns="http://www.w3.org/2000/svg" width="10.368" height="16.371" viewBox="0 0 10.368 16.371"><defs><style>.a{fill:#e36da6;}</style></defs><g transform="translate(-88)"><g transform="translate(88)"><g transform="translate(0)"><path class="a" d="M97,0h-7.64A1.366,1.366,0,0,0,88,1.364V15.007a1.366,1.366,0,0,0,1.364,1.364H97a1.366,1.366,0,0,0,1.364-1.364V1.364A1.366,1.366,0,0,0,97,0Zm.819,15.007a.819.819,0,0,1-.819.819h-7.64a.819.819,0,0,1-.819-.819v-.273h9.277Zm0-.819H88.546V2.183h9.277Zm0-12.551H88.546V1.364a.819.819,0,0,1,.819-.819H97a.819.819,0,0,1,.819.819Z" transform="translate(-88)"/></g></g><g transform="translate(91.82 0.819)"><g transform="translate(0)"><path class="a" d="M200.819,24h-.546a.273.273,0,0,0,0,.546h.546a.273.273,0,0,0,0-.546Z" transform="translate(-200 -24)"/></g></g><g transform="translate(93.184 0.819)"><g transform="translate(0)"><path class="a" d="M241.364,24h-1.091a.273.273,0,0,0,0,.546h1.091a.273.273,0,0,0,0-.546Z" transform="translate(-240 -24)"/></g></g><g transform="translate(92.093 15.007)"><g transform="translate(0)"><path class="a" d="M209.91,440h-1.637a.273.273,0,0,0,0,.546h1.637a.273.273,0,0,0,0-.546Z" transform="translate(-208 -440)"/></g></g></g></svg>